<svg width="264" height="278" viewBox="0 0 264 278" fill="none" xmlns="http://www.w3.org/2000/svg">
    <g clip-path="url(#clip0_1_18)">
        <g clip-path="url(#clip1_1_18)">
            <path d="M215.568 8.43651C137.295 -21.0083 58.4989 28.1456 69.3102 132.434C80.1214 236.723 5.29289e-05 276.779 5.29289e-05 276.779C5.29289e-05 276.779 213.658 289.494 259.445 140.698C259.445 140.698 284.878 34.5048 215.568 8.43651ZM125.274 42.7774L153.252 49.7681C131.626 66.2976 125.274 42.7774 125.274 42.7774ZM205.392 90.9558L181.081 83.543L155.988 90.7839L140.849 75.1923L153.365 82.8802L180.205 74.0918L209.209 82.5207L223.2 75.1892L205.392 90.9558ZM205.392 49.7681L233.367 42.7774C233.367 42.7774 227.011 66.2976 205.392 49.7681Z" fill="#8B3C7F"/>
        </g>
    </g>
    <defs>
        <clipPath id="clip0_1_18">
            <rect width="264" height="277.05" fill="white"/>
        </clipPath>
        <clipPath id="clip1_1_18">
            <rect width="264" height="277.05" fill="white"/>
        </clipPath>
    </defs>
</svg>
